<svg width="37" height="33" viewBox="0 0 37 33" fill="none" xmlns="http://www.w3.org/2000/svg">
<path d="M33.4844 2.92969C29.6172 -0.304688 23.9219 0.1875 20.3359 3.91406L19 5.32031L17.5938 3.91406C14.7109 0.960938 8.94531 -0.867188 4.44531 2.92969C0.015625 6.72656 -0.195312 13.4766 3.74219 17.5547L17.3828 31.6172C17.8047 32.0391 18.3672 32.25 18.9297 32.25C19.5625 32.25 20.125 32.0391 20.5469 31.6172L34.1875 17.5547C38.125 13.4766 37.9141 6.72656 33.4844 2.92969ZM32.5703 16.0078L19 30.0703L5.35938 16.0078C2.6875 13.1953 2.125 7.92188 5.92188 4.6875C9.78906 1.38281 14.2891 3.77344 15.9766 5.46094L19 8.55469L21.9531 5.46094C23.5703 3.77344 28.1406 1.38281 32.0078 4.6875C35.8047 7.92188 35.2422 13.1953 32.5703 16.0078Z" fill="#AEAEB2"/>
</svg>
