<svg width="32" height="37" viewBox="0 0 32 37" fill="none" xmlns="http://www.w3.org/2000/svg">
<path d="M28.375 5H25V1.34375C25 0.921875 24.5781 0.5 24.1562 0.5H23.5938C23.1016 0.5 22.75 0.921875 22.75 1.34375V5H9.25V1.34375C9.25 0.921875 8.82812 0.5 8.40625 0.5H7.84375C7.35156 0.5 7 0.921875 7 1.34375V5H3.625C1.72656 5 0.25 6.54688 0.25 8.375V33.125C0.25 35.0234 1.72656 36.5 3.625 36.5H28.375C30.2031 36.5 31.75 35.0234 31.75 33.125V8.375C31.75 6.54688 30.2031 5 28.375 5ZM3.625 7.25H28.375C28.9375 7.25 29.5 7.8125 29.5 8.375V11.75H2.5V8.375C2.5 7.8125 2.99219 7.25 3.625 7.25ZM28.375 34.25H3.625C2.99219 34.25 2.5 33.7578 2.5 33.125V14H29.5V33.125C29.5 33.7578 28.9375 34.25 28.375 34.25Z" fill="#AEAEB2"/>
</svg>
