<svg width="37" height="33" viewBox="0 0 37 33" fill="none" xmlns="http://www.w3.org/2000/svg">
<path d="M36.2891 14.6719L32 11.1562V5.67188C32 5.46094 31.7891 5.25 31.5781 5.25H30.1719C29.8906 5.25 29.75 5.46094 29.75 5.67188V9.32812L19.9062 1.3125C19.5547 1.03125 18.9219 0.820312 18.5 0.820312C18.0078 0.820312 17.375 1.03125 17.0234 1.3125L0.710938 14.6719C0.570312 14.7422 0.5 14.9531 0.5 15.0938C0.5 15.1641 0.5 15.375 0.570312 15.4453L1.27344 16.2891C1.41406 16.4297 1.625 16.5 1.76562 16.5C1.83594 16.5 1.97656 16.4297 2.11719 16.3594L5 14.0391V31.125C5 31.7578 5.49219 32.25 6.125 32.25H15.125C15.6875 32.25 16.25 31.7578 16.25 31.125V22.125H20.75V31.125C20.75 31.7578 21.2422 32.25 21.875 32.25H30.875C31.4375 32.25 32 31.7578 32 31.125V14.0391L34.8125 16.3594C34.9531 16.4297 35.0938 16.5 35.1641 16.5C35.375 16.5 35.5156 16.4297 35.6562 16.2891L36.3594 15.4453C36.4297 15.375 36.4297 15.1641 36.4297 15.0938C36.4297 14.9531 36.3594 14.7422 36.2891 14.6719ZM29.6797 30L22.9297 30.0703V21C22.9297 20.4375 22.4375 19.875 21.875 19.875H15.125H15.0547C14.4922 19.875 13.9297 20.3672 13.9297 21V30H7.25V12.2109L18.5 3L29.75 12.2109L29.6797 30Z" fill="#AEAEB2"/>
</svg>
