<svg width="41" height="33" viewBox="0 0 41 33" fill="none" xmlns="http://www.w3.org/2000/svg">
<path d="M36.3906 0.75C34.7031 0.820312 26.2656 1.38281 20.9922 4.19531C20.7109 4.33594 20.2188 4.33594 19.9375 4.19531C14.6641 1.38281 6.22656 0.820312 4.53906 0.75C2.14844 0.75 0.25 2.64844 0.25 4.96875V25.7812C0.25 28.0312 2.00781 29.7891 4.25781 29.9297C6.71875 30.0703 12.8359 30.4922 17.0547 32.0391C17.4766 32.1797 17.8281 32.25 18.1797 32.25H22.6797C23.1016 32.25 23.4531 32.1797 23.875 32.0391C28.0938 30.4922 34.2109 30.0703 36.6719 29.9297C38.9219 29.7891 40.6797 28.0312 40.6797 25.7812V4.96875C40.75 2.64844 38.7812 0.75 36.3906 0.75ZM19.375 28.9453C19.375 29.5781 18.8125 30.0703 18.25 30.0703C18.1094 30.0703 18.0391 30 17.8984 30C13.4688 28.3125 7.42188 27.8203 4.39844 27.6797C3.34375 27.6094 2.5 26.8359 2.5 25.7812V4.96875C2.5 3.91406 3.41406 3.07031 4.53906 3.07031C5.875 3.07031 13.1172 3.5625 18.0391 5.74219C18.8125 6.09375 19.3047 6.86719 19.3047 7.71094L19.375 14.7422V28.9453ZM38.5 25.7812C38.5 26.8359 37.5859 27.6094 36.5312 27.6797C33.5078 27.8203 27.4609 28.3125 23.0312 30C22.8906 30 22.8203 30.0703 22.6797 30.0703C22.1172 30.0703 21.5547 29.5781 21.5547 28.9453V14.7422L21.625 7.71094C21.625 6.86719 22.1172 6.09375 22.8906 5.74219C27.8125 3.5625 35.0547 3.07031 36.3906 3.07031C37.5156 3.07031 38.4297 3.91406 38.4297 4.96875V25.7812H38.5Z" fill="#AEAEB2"/>
</svg>
