<svg width="35" height="45" viewBox="0 0 35 45" fill="none" xmlns="http://www.w3.org/2000/svg">
<g filter="url(#filter0_d)">
<path d="M26.5 0.5H8.5C5.96875 0.5 4 2.53906 4 5V32C4 34.5312 5.96875 36.5 8.5 36.5H26.5C28.9609 36.5 31 34.5312 31 32V5C31 2.53906 28.9609 0.5 26.5 0.5ZM28.75 32C28.75 33.2656 27.6953 34.25 26.5 34.25H8.5C7.23438 34.25 6.25 33.2656 6.25 32V5C6.25 3.80469 7.23438 2.75 8.5 2.75H26.5C27.6953 2.75 28.75 3.80469 28.75 5V32ZM14.125 7.25H20.875C21.4375 7.25 22 6.75781 22 6.125C22 5.5625 21.4375 5 20.875 5H14.125C13.4922 5 13 5.5625 13 6.125C13 6.75781 13.4922 7.25 14.125 7.25ZM17.5 21.875C20.5938 21.875 23.125 19.4141 23.125 16.25C23.125 13.1562 20.5938 10.625 17.5 10.625C14.3359 10.625 11.875 13.1562 11.875 16.25C11.875 19.4141 14.3359 21.875 17.5 21.875ZM17.5 12.875C19.3281 12.875 20.875 14.4219 20.875 16.25C20.875 18.1484 19.3281 19.625 17.5 19.625C15.6016 19.625 14.125 18.1484 14.125 16.25C14.125 14.4219 15.6016 12.875 17.5 12.875ZM20.7344 23C19.3984 23 19.0469 23.4922 17.5 23.4922C15.8828 23.4922 15.5312 23 14.1953 23C12.7188 23 11.2422 23.7031 10.3984 24.9688C9.90625 25.7422 9.625 26.5859 9.625 27.5703V30.3125C9.625 30.6641 9.83594 30.875 10.1875 30.875H11.3125C11.5938 30.875 11.875 30.6641 11.875 30.3125V27.5703C11.875 26.5859 12.5078 25.25 14.1953 25.25C15.0391 25.25 15.6719 25.7422 17.5 25.7422C19.2578 25.7422 19.8906 25.25 20.7344 25.25C22.4922 25.25 23.125 26.5859 23.125 27.5703V30.3125C23.125 30.6641 23.3359 30.875 23.6875 30.875H24.8125C25.0938 30.875 25.375 30.6641 25.375 30.3125V27.5703C25.375 26.5859 25.0234 25.7422 24.5312 24.9688C23.6875 23.7031 22.2109 23 20.7344 23Z" fill="#AEAEB2"/>
</g>
<defs>
<filter id="filter0_d" x="-2" y="0.5" width="38" height="44" filterUnits="userSpaceOnUse" color-interpolation-filters="sRGB">
<feFlood flood-opacity="0" result="BackgroundImageFix"/>
<feColorMatrix in="SourceAlpha" type="matrix" values="0 0 0 0 0 0 0 0 0 0 0 0 0 0 0 0 0 0 127 0"/>
<feOffset dy="4"/>
<feGaussianBlur stdDeviation="2"/>
<feColorMatrix type="matrix" values="0 0 0 0 0 0 0 0 0 0 0 0 0 0 0 0 0 0 0.25 0"/>
<feBlend mode="normal" in2="BackgroundImageFix" result="effect1_dropShadow"/>
<feBlend mode="normal" in="SourceGraphic" in2="effect1_dropShadow" result="shape"/>
</filter>
</defs>
</svg>
