<svg width="262" height="110" viewBox="0 0 262 110" fill="none" xmlns="http://www.w3.org/2000/svg">
<path d="M37.9197 34.1291L51.2749 34.1084L51.2853 39.1916L44.5348 39.202L44.566 52.4078L51.3166 52.3975L51.327 57.408L44.5765 57.4184L44.6181 76.4648L38.0134 76.4751L37.9197 34.1291Z" fill="#00215B"/>
<path d="M64.7762 33.7975L73.4436 33.7871C76.7043 33.7871 78.4023 34.2332 79.965 35.5092C81.4442 36.7229 81.9651 38.3827 81.9651 42.4804V48.6839C81.9651 50.3438 81.7463 51.7546 81.2984 52.9061C80.7775 54.1198 79.965 54.8252 78.1836 55.6655C79.142 56.0494 79.4441 56.2361 79.965 56.5577C81.2255 57.3876 81.9651 58.9852 81.9651 61.1014V72.8135C81.9651 74.6704 82.038 75.2513 82.5589 76.4651L76.0376 76.4754C75.5167 75.3239 75.3708 74.2969 75.3708 71.8695V60.9873C75.3708 58.4872 74.777 57.9789 71.9643 57.9167H71.3705V76.4754L64.7762 76.4858V33.7975ZM71.3601 52.8646C72.9123 52.8646 73.2144 52.8023 73.8082 52.6675C74.9958 52.3459 75.3604 51.6405 75.3604 49.7836V41.9721C75.3604 39.472 74.7666 38.9637 71.9539 38.9014H71.3601V52.8646Z" fill="#00215B"/>
<path d="M91.1431 60.2926V67.8862C91.1431 69.1415 91.1431 69.266 91.216 69.7743C91.3619 70.905 92.0911 71.4652 93.2474 71.4652C93.9037 71.4652 94.633 71.154 94.9142 70.7079C95.2059 70.2722 95.2788 69.7017 95.2788 67.8862V62.5541C95.2788 60.5416 94.8413 59.6702 93.1016 58.3423L88.8096 54.9501C85.4656 52.3151 84.7363 50.9977 84.7363 47.4809V43.155C84.7363 40.4578 84.7363 40.0118 85.1009 38.6321C85.8302 35.551 88.8825 33.7979 93.1641 33.7979C95.8518 33.7979 98.3207 34.5551 99.7063 35.9349C100.435 36.6299 100.946 37.5636 101.227 38.6321C101.592 39.9495 101.592 40.3852 101.592 43.155V48.7465H95.2684V42.4081C95.2684 41.3396 95.2684 40.9662 95.1955 40.4578C95.0497 39.3893 94.3934 38.7669 93.237 38.7669C92.5078 38.7669 91.8515 39.0781 91.4973 39.5242C91.2056 39.9599 91.1327 40.5305 91.1327 42.4081V46.3606C91.1327 48.4353 91.4973 49.0577 93.8204 50.8835L98.0395 54.2135C101.019 56.5373 101.748 57.9792 101.748 61.6205V67.0875C101.748 69.8469 101.675 70.293 101.311 71.6104C100.581 74.6915 97.6019 76.5069 93.2474 76.5069C90.4868 76.5069 88.0178 75.6874 86.6323 74.3699C85.9031 73.6126 85.3926 72.679 85.1114 71.6104C84.7467 70.3552 84.7467 69.8573 84.7467 67.0875V60.303H91.1431V60.2926Z" fill="#00215B"/>
<path d="M54.1918 34.1084H60.7235V76.361H54.1918V34.1084Z" fill="#00215B"/>
<path d="M119.739 38.9852L119.718 33.9124L114.301 33.9228L114.176 25.7793H107.8L107.925 33.9331H102.935L102.946 39.0059L108.082 38.9956L108.175 76.1857L114.551 76.1754L114.457 38.9956L119.739 38.9852Z" fill="#B20838"/>
<path d="M144.918 33.7985L153.585 33.7881C156.846 33.7881 158.544 34.2342 160.107 35.5101C161.586 36.7239 162.107 38.3837 162.107 42.4814V48.6849C162.107 50.3447 161.888 51.7556 161.44 52.9071C160.919 54.1208 160.107 54.8262 158.325 55.6665C159.284 56.0503 159.586 56.2371 160.107 56.5587C161.367 57.3886 162.107 58.9861 162.107 61.1024V72.8145C162.107 74.6714 162.18 75.2523 162.701 76.466L156.179 76.4764C155.658 75.3249 155.512 74.2979 155.512 71.8704V60.9883C155.512 58.4882 154.919 57.9799 152.106 57.9176H151.512V76.4764L144.918 76.4868V33.7985ZM151.512 52.8656C153.064 52.8656 153.366 52.8033 153.96 52.6685C155.148 52.3469 155.512 51.6415 155.512 49.7845V41.973C155.512 39.4729 154.919 38.9646 152.106 38.9024H151.512V52.8656Z" fill="#00215B"/>
<path d="M196.078 33.7985L204.745 33.7881C208.006 33.7881 209.704 34.2342 211.266 35.5101C212.746 36.7239 213.267 38.3837 213.267 42.4814V48.6849C213.267 50.3447 213.048 51.7556 212.6 52.9071C212.079 54.1208 211.266 54.8262 209.485 55.6665C210.443 56.0503 210.746 56.2371 211.266 56.5587C212.527 57.3886 213.267 58.9861 213.267 61.1024V72.8145C213.267 74.6714 213.34 75.2523 213.86 76.466L207.339 76.4764C206.818 75.3249 206.672 74.2979 206.672 71.8704V60.9883C206.672 58.4882 206.079 57.9799 203.266 57.9176H202.672V76.4764L196.078 76.4868V33.7985ZM202.662 52.8656C204.214 52.8656 204.516 52.8033 205.11 52.6685C206.297 52.3469 206.662 51.6415 206.662 49.7845V41.973C206.662 39.4729 206.068 38.9646 203.255 38.9024H202.662V52.8656Z" fill="#00215B"/>
<path d="M126.76 33.7363L134.917 33.6637C137.98 33.6325 139.584 34.0682 141.053 35.3338C142.522 36.5994 142.938 38.1348 142.938 42.6785L142.949 49.9195C142.949 52.8656 142.678 54.4113 141.907 55.8844C141.563 56.6521 140.865 57.3679 140.021 57.8243C138.771 58.6646 137.584 58.8721 134.656 58.8928L132.979 58.9032L133 76.3935L126.791 76.4557L126.76 33.7363ZM133.542 53.7889C136.188 53.7681 136.75 53.1872 136.74 50.6871L136.73 41.8486C136.73 39.3485 136.167 38.8402 133.521 38.7987L132.958 38.8091L132.969 53.7993L133.542 53.7889Z" fill="#00215B"/>
<path d="M165.304 33.8916H172.18V76.4347H165.304V33.8916Z" fill="#00215B"/>
<path d="M216.653 33.8916H223.528V76.5488H216.653V33.8916Z" fill="#00215B"/>
<path d="M192.39 71.7042C191.661 74.8682 188.661 76.6318 184.202 76.6318C181.275 76.6318 178.858 75.8019 177.472 74.474C176.743 73.7167 176.16 72.7623 175.931 71.6938C175.566 70.4282 175.493 69.9199 175.493 67.1397V43.062C175.493 40.3441 175.566 39.898 175.931 38.5079C176.66 35.4165 179.66 33.6426 184.119 33.6426C187.046 33.6426 189.453 34.4102 190.849 35.8003C191.578 36.4954 192.161 37.4498 192.38 38.5183C192.745 39.8461 192.817 40.2922 192.817 43.0724V67.1501C192.828 69.9406 192.755 70.3763 192.39 71.7042ZM182.15 69.868C182.296 71.0091 183.025 71.5693 184.129 71.5797C184.858 71.5797 185.588 71.2685 185.89 70.8224C186.182 70.3763 186.254 69.8784 186.254 67.98V42.3151C186.254 41.2362 186.254 40.8005 186.182 40.3545C186.036 39.2756 185.306 38.6428 184.129 38.6428C183.473 38.6428 182.744 38.954 182.442 39.4001C182.15 39.8461 182.077 40.4789 182.077 42.3047V67.9592C182.077 68.7891 182.077 69.4219 182.15 69.868Z" fill="#00215B"/>
<path d="M248.749 33.8809L251.853 48.01L254.812 33.8809H261.167L255.104 60.3549V76.3306H248.749V60.1059L242.186 33.8912H248.749V33.8809Z" fill="#00215B"/>
<path d="M230.268 38.9955H225.101L225.091 33.8916H242.009L242.019 39.0059H236.696L236.769 76.4866H230.341L230.268 38.9955Z" fill="#00215B"/>
<path d="M56.2649 93.9971C34.7736 93.9971 17.2826 76.5795 17.2826 55.1782C17.2826 33.777 34.7736 16.3594 56.2649 16.3594C66.6719 16.3594 76.4644 20.3948 83.8296 27.7291C84.2254 28.1233 84.2254 28.7665 83.8296 29.1607C83.4337 29.5549 82.7878 29.5549 82.3919 29.1607C75.4122 22.2102 66.1302 18.3823 56.2649 18.3823C35.8882 18.3823 19.314 34.887 19.314 55.1782C19.314 75.4695 35.8882 91.9742 56.2649 91.9742C66.5157 91.9742 76.3915 87.6795 83.3608 80.1999C83.7462 79.7953 84.3817 79.7642 84.7984 80.1481C85.2047 80.5319 85.2359 81.1647 84.8505 81.5797C77.4957 89.4638 67.0782 93.9971 56.2649 93.9971Z" fill="#ADAFB1"/>
<path d="M55.5047 109.9C25.2627 109.9 0.666992 85.3973 0.666992 55.2924C0.666992 25.1772 25.2731 0.68457 55.5047 0.68457C74.6833 0.68457 92.7264 10.8717 102.592 27.2831C102.883 27.7603 102.727 28.3827 102.238 28.6732C101.758 28.9636 101.133 28.808 100.842 28.3205C91.3513 12.5107 73.9749 2.69709 55.5047 2.69709C26.3878 2.69709 2.68799 26.2872 2.68799 55.2924C2.68799 84.2873 26.3774 107.888 55.5047 107.888C74.6416 107.888 92.3201 97.545 101.654 80.8847C101.925 80.3971 102.54 80.2207 103.029 80.4905C103.519 80.7602 103.696 81.3722 103.425 81.8598C93.7265 99.153 75.3709 109.9 55.5047 109.9Z" fill="#ADAFB1"/>
<path d="M56.4003 93.7997C34.961 93.7997 17.5117 76.4235 17.5117 55.0742C17.5117 33.7248 34.961 16.3486 56.4003 16.3486C66.7865 16.3486 76.5581 20.3737 83.9025 27.6872C84.2983 28.0814 84.2983 28.7142 83.9025 29.1084C83.5066 29.5027 82.8711 29.5027 82.4753 29.1084C75.506 22.1787 66.2448 18.3612 56.4003 18.3612C36.0757 18.3612 19.5327 34.8244 19.5327 55.0742C19.5327 75.3135 36.0653 91.7871 56.4003 91.7871C66.6198 91.7871 76.4748 87.5027 83.4337 80.0336C83.8087 79.629 84.4546 79.5979 84.8609 79.9817C85.2672 80.3552 85.2984 80.9984 84.913 81.4029C77.579 89.287 67.1824 93.7997 56.4003 93.7997Z" fill="#ADAFB1"/>
<path d="M55.6399 109.661C25.4812 109.661 0.937622 85.2311 0.937622 55.1884C0.937622 25.1458 25.4812 0.705078 55.6503 0.705078C74.7872 0.705078 92.7783 10.8714 102.623 27.2413C102.904 27.7185 102.758 28.341 102.279 28.6211C101.8 28.9115 101.175 28.7559 100.893 28.2787C91.4032 12.5105 74.0684 2.72798 55.6399 2.72798C26.5959 2.72798 2.95862 26.2558 2.95862 55.1884C2.95862 84.1211 26.5959 107.649 55.6399 107.649C74.7247 107.649 92.372 97.327 101.675 80.7081C101.946 80.2205 102.56 80.0441 103.05 80.3139C103.54 80.5836 103.717 81.1956 103.446 81.6832C93.7784 98.9453 75.4644 109.661 55.6399 109.661Z" fill="#ADAFB1"/>
<path d="M26.2735 89.6612C24.4921 91.4247 21.9502 91.2795 20.2209 89.5471C18.9604 88.2918 18.9187 86.881 19.2417 85.7503L20.8147 86.2897C20.5855 86.9951 20.7314 87.8769 21.3148 88.4682C22.3669 89.5159 23.9296 89.4848 25.013 88.406C26.1068 87.3271 26.1485 85.771 25.1067 84.7232C24.5234 84.1423 23.6379 83.9867 22.9295 84.2046L22.3878 82.6485C23.5129 82.3476 24.9401 82.3788 26.2006 83.6444C27.9299 85.3664 28.0549 87.908 26.2735 89.6612Z" fill="#ADAFB1"/>
<path d="M18.9809 73.8929L16.0015 75.5942L17.9184 78.9138L20.8978 77.2125L21.7624 78.7063L14.6993 82.7418L13.8347 81.2479L16.6057 79.6607L14.6889 76.3411L11.9179 77.9283L11.0532 76.4241L18.1163 72.3887L18.9809 73.8929Z" fill="#ADAFB1"/>
<path d="M13.5016 69.6603L8.77204 70.8844L8.3345 69.1935L13.012 67.9797C14.1058 67.6893 14.6996 66.8594 14.3871 65.656C14.0745 64.4423 13.1474 64.0169 12.0535 64.297L7.37609 65.5108L6.91772 63.7991L11.6473 62.575C13.5953 62.0667 15.2413 62.8758 15.8664 65.2618C16.4914 67.6478 15.4497 69.152 13.5016 69.6603Z" fill="#ADAFB1"/>
<path d="M14.3872 53.3531L11.4911 54.9403V56.2059H14.3872V57.928L6.24072 57.9176L6.25114 54.1311C6.25114 52.4402 7.36581 51.3925 8.87635 51.4028C10.3035 51.4028 11.0849 52.3157 11.2932 53.1975L14.3976 51.3613L14.3872 53.3531ZM8.86593 53.1767C8.19921 53.1767 7.78251 53.6954 7.78251 54.3801V56.2059H9.9806V54.3801C9.97019 53.6954 9.55349 53.1767 8.86593 53.1767Z" fill="#ADAFB1"/>
<path d="M10.8248 47.2527C8.38715 46.6303 7.20998 44.3896 7.82461 42.0243C8.26214 40.3023 9.46016 39.545 10.5852 39.2441L10.929 40.8625C10.2102 41.0284 9.51224 41.6094 9.31431 42.4082C8.9497 43.8397 9.7831 45.1572 11.2728 45.5411C12.7625 45.9249 14.1272 45.1676 14.4918 43.7256C14.7002 42.9268 14.3668 42.0866 13.8147 41.599L14.8773 40.3438C15.7211 41.1425 16.419 42.3874 15.9815 44.1095C15.3669 46.4643 13.2417 47.8648 10.8248 47.2527Z" fill="#ADAFB1"/>
<path d="M20.6483 32.9061L17.6481 31.2359L15.7729 34.5763L18.7732 36.2465L17.9294 37.7507L10.8142 33.7982L11.658 32.294L14.4499 33.8501L16.3251 30.5097L13.5436 28.9433L14.3978 27.4287L21.513 31.3811L20.6483 32.9061Z" fill="#ADAFB1"/>
<path d="M27.3462 19.2128C25.9399 17.138 26.5649 14.6794 28.5963 13.3204C30.0756 12.3245 31.4716 12.5424 32.5238 13.0715L31.7008 14.503C31.0445 14.1503 30.1486 14.1192 29.461 14.586C28.2213 15.4159 27.9713 16.9513 28.8255 18.2169C29.6902 19.4825 31.2111 19.8248 32.4404 18.9949C33.128 18.5281 33.4405 17.6878 33.3572 16.9616L34.9927 16.723C35.0865 17.8849 34.7739 19.275 33.2946 20.2605C31.2632 21.6299 28.7422 21.2772 27.3462 19.2128Z" fill="#ADAFB1"/>
<path d="M44.2539 14.9909L43.3059 13.8706L40.0139 15.0428L39.9931 16.5055L38.1388 17.1591L38.3576 8.47617L40.3994 7.75L46.0873 14.3374L44.2539 14.9909ZM39.9723 9.7314L39.9514 13.4452L42.3475 12.5946L39.9723 9.7314Z" fill="#ADAFB1"/>
<path d="M56.0674 13.2477L55.6923 7.4176L53.7755 13.3929L53.0151 13.4448L50.3482 7.75994L50.7232 13.59L48.9939 13.7041L48.473 5.61255L50.9003 5.45695L53.2026 10.3845L54.8485 5.1976L57.2862 5.04199L57.8071 13.1336L56.0674 13.2477Z" fill="#ADAFB1"/>
<path d="M61.6406 13.6L63.297 5.66406L67.0265 6.4421C68.7558 6.80518 69.4642 8.16415 69.1725 9.55425C68.8808 10.934 67.6828 11.8987 65.9639 11.546L63.9325 11.1207L63.3387 13.9527L61.6406 13.6ZM67.4328 9.19116C67.5682 8.52724 67.1411 8.00855 66.4743 7.87369L64.6825 7.50023L64.2346 9.62686L66.0264 10.0003C66.7035 10.1352 67.2973 9.84471 67.4328 9.19116Z" fill="#ADAFB1"/>
<path d="M72.6627 13.0822L74.8192 8.71484L76.3922 9.48251L74.2566 13.8084C73.7566 14.825 74.0066 15.8105 75.1317 16.3604C76.2568 16.9102 77.1839 16.4952 77.684 15.489L79.8195 11.1631L81.4134 11.9411L79.257 16.3085C78.3715 18.1135 76.6839 18.8293 74.4545 17.7401C72.2356 16.6508 71.7773 14.8873 72.6627 13.0822Z" fill="#ADAFB1"/>
<path d="M81.3304 20.1984L82.9347 19.7835C82.9868 20.603 83.3306 21.5678 84.1848 22.2939C84.9245 22.9164 85.5391 22.8852 85.8516 22.5222C86.7684 21.4433 82.5597 19.1714 84.5495 16.8477C85.4245 15.8207 87.0497 15.7273 88.5081 16.9618C89.4978 17.8021 90.0603 18.7876 90.1853 19.8768L88.6123 20.2295C88.5081 19.3374 88.0185 18.5593 87.383 18.0199C86.8205 17.5427 86.2996 17.522 85.9871 17.885C85.1537 18.8602 89.279 21.2254 87.2997 23.5284C86.3308 24.6592 84.7891 24.8148 83.1223 23.4039C81.9242 22.3977 81.4138 21.2773 81.3304 20.1984Z" fill="#ADAFB1"/>
<path d="M36.7738 96.3941C37.6593 94.0496 40.0345 93.1367 42.3263 94.0081C43.9931 94.6409 44.6182 95.8961 44.7953 97.058L43.1389 97.2136C43.0555 96.4771 42.5555 95.7302 41.7742 95.4397C40.3782 94.9106 38.9719 95.5953 38.4302 97.0269C37.8885 98.4585 38.4927 99.8901 39.8782 100.419C40.6595 100.71 41.5242 100.481 42.0763 99.9834L43.2118 101.176C42.3159 101.923 40.9929 102.473 39.3261 101.84C37.0551 100.979 35.8883 98.7178 36.7738 96.3941Z" fill="#ADAFB1"/>
<path d="M53.504 104.672L53.8478 101.269L50.0246 100.886L49.6808 104.278L47.9619 104.101L48.7745 96.041L50.5038 96.2174L50.1808 99.3814L54.0041 99.7652L54.327 96.6012L56.0667 96.7776L55.2542 104.838L53.504 104.672Z" fill="#ADAFB1"/>
<path d="M65.8383 103.873L63.8068 101.28L62.5568 101.477L63.0151 104.319L61.3067 104.589L60.0149 96.5806L63.7756 95.9789C65.4528 95.7092 66.6612 96.6428 66.9008 98.1263C67.13 99.5268 66.3487 100.44 65.5153 100.782L67.828 103.541L65.8383 103.873ZM65.1403 98.4168C65.0361 97.7529 64.4527 97.4313 63.7756 97.535L61.963 97.8255L62.3067 99.9832L64.109 99.6928C64.7965 99.589 65.2445 99.0911 65.1403 98.4168Z" fill="#ADAFB1"/>
<path d="M72.954 101.954L70.1309 94.3497L71.756 93.748L74.5791 101.352L72.954 101.954Z" fill="#ADAFB1"/>
<path d="M78.7041 98.386L78.8187 96.7366C79.6209 96.9544 80.6418 96.9337 81.6106 96.3631C82.4336 95.8652 82.6003 95.2738 82.3607 94.8693C81.6314 93.6555 78.1208 96.9025 76.5477 94.2883C75.8497 93.1265 76.2769 91.5704 77.9228 90.5849C79.0375 89.9209 80.1522 89.7031 81.2252 89.9313L81.0689 91.5289C80.1938 91.3422 79.2875 91.56 78.5791 91.9853C77.9541 92.3588 77.7561 92.8464 78.0062 93.2613C78.6625 94.361 82.2253 91.2177 83.7983 93.8111C84.5692 95.0871 84.2254 96.5913 82.3503 97.7117C80.9856 98.5209 79.7563 98.6453 78.7041 98.386Z" fill="#ADAFB1"/>
<path d="M90.5696 91.3522L85.965 86.6217L84.2566 88.2712L83.194 87.1819L87.861 82.6797L88.9236 83.7689L87.2255 85.408L91.8301 90.1385L90.5696 91.3522Z" fill="#ADAFB1"/>
<path d="M24.0956 23.621C24.1165 24.4509 23.4498 25.146 22.6164 25.1564C21.783 25.1771 21.0954 24.5132 21.0746 23.6833C21.0537 22.8534 21.7205 22.1687 22.5539 22.1479C23.3873 22.1272 24.0748 22.7807 24.0956 23.621Z" fill="#ADAFB1"/>
<path d="M32.8675 93.5722C32.8883 94.4021 32.2216 95.0868 31.3882 95.1075C30.5548 95.1179 29.8568 94.4643 29.8464 93.6344C29.8256 92.8045 30.4923 92.1199 31.3257 92.0991C32.1591 92.0784 32.8466 92.7319 32.8675 93.5722Z" fill="#ADAFB1"/>
</svg>
